<mxfile host="app.diagrams.net" modified="2024-02-28T06:28:03.704Z" agent="Mozilla/5.0 (Macintosh; Intel Mac OS X 10_15_7) AppleWebKit/537.36 (KHTML, like Gecko) Chrome/122.0.0.0 Safari/537.36" version="23.1.6" etag="-updW_43bE0NYPBKD0-T" type="github">
  <diagram name="第 1 页" id="IDX-eI8qNbx5Ju4sz8jA">
    <mxGraphModel>
      <root>
        <mxCell id="0" />
        <mxCell id="1" parent="0" />
      </root>
    </mxGraphModel>
  </diagram>
</mxfile>
